<?xml version="1.0" encoding="iso-8859-1"?>
<!-- Generator: Adobe Illustrator 17.1.0, SVG Export Plug-In . SVG Version: 6.00 Build 0)  -->
<!DOCTYPE svg PUBLIC "-//W3C//DTD SVG 1.1//EN" "http://www.w3.org/Graphics/SVG/1.1/DTD/svg11.dtd">
<svg version="1.1" id="Capa_1" xmlns="http://www.w3.org/2000/svg" xmlns:xlink="http://www.w3.org/1999/xlink" x="0px" y="0px"
	 viewBox="0 0 295.304 295.304" style="enable-background:new 0 0 295.304 295.304;" xml:space="preserve">
<g>
	<path style="fill:#000002;" d="M272.804,99.375H157.431V80.008c0-12.407-10.093-22.5-22.5-22.5h-14.849
		c-5.074,0-11.235-4.357-12.925-9.142l-5.009-14.178c-1.38-3.906-5.667-5.952-9.57-4.573c-3.906,1.38-5.953,5.665-4.573,9.57
		l5.009,14.178c3.793,10.735,15.683,19.145,27.068,19.145h14.849c4.136,0,7.5,3.364,7.5,7.5v19.368H22.5
		c-12.407,0-22.5,10.093-22.5,22.5v121.743c0,12.407,10.093,22.5,22.5,22.5h250.304c12.407,0,22.5-10.093,22.5-22.5V121.875
		C295.304,109.469,285.21,99.375,272.804,99.375z M22.5,114.375h250.304c4.136,0,7.5,3.364,7.5,7.5v4.544H15v-4.544
		C15,117.74,18.364,114.375,22.5,114.375z M272.804,251.119H22.5c-4.136,0-7.5-3.364-7.5-7.5V136.419h265.304v107.199
		C280.304,247.754,276.939,251.119,272.804,251.119z"/>
	<path style="fill:#000002;" d="M61.481,144.419H45.086c-4.962,0-9,4.038-9,9v12c0,4.962,4.038,9,9,9h16.395c4.962,0,9-4.038,9-9
		v-12C70.481,148.457,66.444,144.419,61.481,144.419z M60.481,164.419H46.086v-10h14.395V164.419z"/>
	<path style="fill:#000002;" d="M93.391,174.419h16.395c4.962,0,9-4.038,9-9v-12c0-4.962-4.038-9-9-9H93.391c-4.962,0-9,4.038-9,9
		v12C84.391,170.382,88.428,174.419,93.391,174.419z M94.391,154.419h14.395v10H94.391V154.419z"/>
	<path style="fill:#000002;" d="M141.695,174.419h16.395c4.962,0,9-4.038,9-9v-12c0-4.962-4.038-9-9-9h-16.395c-4.962,0-9,4.038-9,9
		v12C132.695,170.382,136.733,174.419,141.695,174.419z M142.695,154.419h14.395v10h-14.395V154.419z"/>
	<path style="fill:#000002;" d="M206.395,144.419H190c-4.962,0-9,4.038-9,9v12c0,4.962,4.038,9,9,9h16.395c4.962,0,9-4.038,9-9v-12
		C215.395,148.457,211.357,144.419,206.395,144.419z M205.395,164.419H191v-10h14.395V164.419z"/>
	<path style="fill:#000002;" d="M254.699,144.419h-16.395c-4.962,0-9,4.038-9,9v12c0,4.962,4.038,9,9,9h16.395c4.962,0,9-4.038,9-9
		v-12C263.699,148.457,259.662,144.419,254.699,144.419z M253.699,164.419h-14.395v-10h14.395V164.419z"/>
	<path style="fill:#000002;" d="M61.481,179.758H45.086c-4.962,0-9,4.038-9,9v12c0,4.962,4.038,9,9,9h16.395c4.962,0,9-4.038,9-9
		v-12C70.481,183.796,66.444,179.758,61.481,179.758z M60.481,199.758H46.086v-10h14.395V199.758z"/>
	<path style="fill:#000002;" d="M93.391,209.758h16.395c4.962,0,9-4.038,9-9v-12c0-4.962-4.038-9-9-9H93.391c-4.962,0-9,4.038-9,9
		v12C84.391,205.721,88.428,209.758,93.391,209.758z M94.391,189.758h14.395v10H94.391V189.758z"/>
	<path style="fill:#000002;" d="M141.695,209.758h16.395c4.962,0,9-4.038,9-9v-12c0-4.962-4.038-9-9-9h-16.395c-4.962,0-9,4.038-9,9
		v12C132.695,205.721,136.733,209.758,141.695,209.758z M142.695,189.758h14.395v10h-14.395V189.758z"/>
	<path style="fill:#000002;" d="M206.395,179.758H190c-4.962,0-9,4.038-9,9v12c0,4.962,4.038,9,9,9h16.395c4.962,0,9-4.038,9-9v-12
		C215.395,183.796,211.357,179.758,206.395,179.758z M205.395,199.758H191v-10h14.395V199.758z"/>
	<path style="fill:#000002;" d="M254.699,179.758h-16.395c-4.962,0-9,4.038-9,9v12c0,4.962,4.038,9,9,9h16.395c4.962,0,9-4.038,9-9
		v-12C263.699,183.796,259.662,179.758,254.699,179.758z M253.699,199.758h-14.395v-10h14.395V199.758z"/>
	<path style="fill:#000002;" d="M61.481,215.126H45.086c-4.962,0-9,4.038-9,9v12c0,4.962,4.038,9,9,9h16.395c4.962,0,9-4.038,9-9
		v-12C70.481,219.164,66.444,215.126,61.481,215.126z M60.481,235.126H46.086v-10h14.395V235.126z"/>
	<path style="fill:#000002;" d="M206.09,215.126H93.695c-4.962,0-9,4.038-9,9v12c0,4.962,4.038,9,9,9H206.09c4.962,0,9-4.038,9-9
		v-12C215.09,219.164,211.053,215.126,206.09,215.126z M205.09,235.126H94.695v-10H205.09V235.126z"/>
	<path style="fill:#000002;" d="M254.699,215.126h-16.395c-4.962,0-9,4.038-9,9v12c0,4.962,4.038,9,9,9h16.395c4.962,0,9-4.038,9-9
		v-12C263.699,219.164,259.662,215.126,254.699,215.126z M253.699,235.126h-14.395v-10h14.395V235.126z"/>
</g>
<g>
</g>
<g>
</g>
<g>
</g>
<g>
</g>
<g>
</g>
<g>
</g>
<g>
</g>
<g>
</g>
<g>
</g>
<g>
</g>
<g>
</g>
<g>
</g>
<g>
</g>
<g>
</g>
<g>
</g>
</svg>
